<svg class="icon" xmlns="http://www.w3.org/2000/svg">
<g data-name="Out line">
<path d="m440 144h-40v-24a104.01 104.01 0 0 0-136-98.958 104 104 0 0 0-136 98.958v24h-40a7.9998 7.9998 0 0 0-8 8v336a7.9998 7.9998 0 0 0 8 8h352a7.9998 7.9998 0 0 0 8-8v-336a7.9998 7.9998 0 0 0-8-8zm-8 317.58-16-24v-261.58h-16v261.58l-16 24v-301.58h48zm-108.04-390.1a56.094 56.094 0 0 1 28.037 48.521v24h-16v-24a103.35 103.35 0 0 0-12.037-48.521zm84.037 382.94 17.052 25.578h-34.104zm-112-422.42a88.1 88.1 0 0 1 88 88v24h-16v-24a72.072 72.072 0 0 0-60.091-71.01 104.78 104.78 0 0 0-19.951-16.619c2.6638-0.24091 5.3453-0.37146 8.0428-0.37146zm-152 88a88 88 0 0 1 176 0v56h-16v-56a72 72 0 0 0-144 0v56h-16zm48 24h-16v-24a56.02 56.02 0 0 1 27.995-48.463 103.92 103.92 0 0 0-11.995 48.463zm16-24a87.882 87.882 0 0 1 20.005-55.842c1.3211-0.09368 2.6502-0.15826 3.9947-0.15826a55.805 55.805 0 0 1 16.012 2.3449 72.273 72.273 0 0 0-24.012 53.655v24h-16zm32 0a56.227 56.227 0 0 1 23.974-45.935 55.965 55.965 0 0 1 24.026 45.935v24h-48zm-144 40h32v24a7.9998 7.9998 0 0 0 8 8h32a7.9998 7.9998 0 0 0 8-8v-24h112v24a7.9998 7.9998 0 0 0 8 8h32a7.9998 7.9998 0 0 0 8-8v-24h32v320h-272z"/>
<path d="m341.15 249.88a8.0016 8.0016 0 0 0-8.3955-1.1856l-55.661 24.738a53.29 53.29 0 0 1-29.586 4.0083l-18.945-2.8418a69.36 69.36 0 0 0-79.223 60.932l-4.7312 42.582-15.465 25.775 13.72 8.2324 11.477-19.128 27.523 7.8636a118.46 118.46 0 0 0 147.47-85.172l14.435-57.739a8.001 8.001 0 0 0-2.6148-8.0654zm-157.2 52.454a53.379 53.379 0 0 1 42.235-11.911l18.944 2.8418a69.263 69.263 0 0 0 38.458-5.2104l33.801-15.023-0.6634 1.1942a89.051 89.051 0 0 1-77.804 45.78 105.6 105.6 0 0 0-75.305 31.883l1.621-14.59a53.134 53.134 0 0 1 18.712-34.965zm47.296 85.687a103.09 103.09 0 0 1-44.993-2.5483l-23.387-6.6817a89.453 89.453 0 0 1 76.055-42.785 105.07 105.07 0 0 0 77.322-33.966l-2.4412 9.7646a102.42 102.42 0 0 1-82.556 76.216z"/>
</g>
</svg>

